<?xml version="1.0" encoding="utf-8"?>
<!-- Generator: Adobe Illustrator 21.1.0, SVG Export Plug-In . SVG Version: 6.00 Build 0)  -->
<svg version="1.1" id="Lager_1" xmlns="http://www.w3.org/2000/svg" xmlns:xlink="http://www.w3.org/1999/xlink" x="0px" y="0px"
	 viewBox="0 0 1366 768" style="enable-background:new 0 0 1366 768;" xml:space="preserve">
<g>
	<path d="M362.1,243c0.2-0.7,0.4-1.3,0.5-2c0.2-1.4,0.2-2.9,0.4-4.3c0.4-1.9,0.5-4.2,1.6-5.6c9.9-12.7,19.6-25.6,30.3-37.6
		c7.7-8.6,17.1-15.7,25.2-24c7.2-7.4,15.7-13.1,24.2-18.8c14.9-10.1,29.7-20.5,46.1-28.3c7.4-3.5,14.5-7.5,21.8-11.1
		c2.6-1.3,5.3-2.2,7.9-3.3c10.6-4.3,21.2-8.7,31.9-13c9.2-3.7,18.5-7.5,27.9-10.8c3.9-1.4,8.2-2.5,12.3-2.5
		c5.1,0.1,8.6-2.8,12.7-4.7c0.6-0.3,1.1-1.5,1.2-2.3c1.1-8.6,4.7-16.3,8.9-23.7c2.3-4,4.4-8.2,6.8-12.2c0.5-0.8,2.1-1.6,2.9-1.3
		c3.8,1.3,6.3-0.9,8.6-3.1c5.1-4.8,10.8-7.1,17.9-6.2c10.8,1.3,21.8,2.1,32.6,3.6c11.4,1.6,22.7,3.6,34,5.7
		c8.6,1.7,17.1,3.8,25.5,5.9c8.2,2,16.3,4,24.4,6.4c9.3,2.7,18.5,5.7,27.5,8.9c7.2,2.6,14.3,5.8,21.3,8.9c2.2,1,4.1,2.8,6.1,4.4
		c2.8,2.3,5.6,4.7,8.5,7.3c-2.5,3-0.5,5.3,1.7,7.1c3.5,3,7.1,5.9,11,8.3c19.5,12.3,38.5,25.2,55.3,41.1c15.1,14.2,30.6,28,45.2,42.7
		c7.9,7.9,14.4,17.2,21.5,26c5.1,6.3,10.1,12.5,14.9,19c6.8,9.3,12.5,19.2,17.4,29.7c4.7,10,10,19.7,14,30c3.7,9.4,6,19.3,8.7,29
		c1.9,6.7,3.4,13.6,5.2,20.4c4.5,16.1,6.9,32.4,7.2,49.1c0.2,16.6,0.5,33.2,0.8,49.8c0.2,14.4-1.6,28.5-4.8,42.5
		c-3.1,13.6-6.1,27.2-9.2,40.8c-3.1,13.8-6.3,27.6-12.2,40.6c-4.7,10.3-10.2,20.3-15.5,30.4c-4.6,8.8-8.9,17.7-14.1,26
		c-11.4,17.9-21.8,36.7-37.2,51.6c-9.3,9-19.5,17.1-29.4,25.5c-1,0.8-2.5,1-3.8,1.5c-3.9,1.5-8.3,2.4-11.8,4.6
		c-7.1,4.6-13.7,10-20.7,14.8c-7.2,5-14.2,10.3-22,14.2c-3.8,2-8.5,3.9-13.8,1.8c-2.7-1-6.6,1.1-9.9,2c-1.8,0.5-3.3,1.6-5.1,2
		c-1.5,0.3-3.2,0-4.7-0.2c-1.8-0.3-3.5-0.9-5.3-1.3c-1.1-4.4-1.2-4.9-6-3.6c-5.3,1.4-10.6,3.3-15.4,5.8c-6.4,3.3-12.4,7.3-18.2,10.8
		c0.3-0.8,1.3-2.1,1.5-3.6c0.2-1.5-1-3.3-0.6-4.7c0.4-1.6,2-2.9,2.9-4.5c1.8-3,1-4.3-2.5-4.4c-0.8,0-1.6,0.2-2.4,0.4
		c-3.5,1-5.2,0.2-6.4-3.2c-3-8-3.1-8.3-11.5-6.9c-25.2,4.2-50.3,2.6-75.4,0c-10.7-1.1-21.5-2.5-32.1-4.6c-5.2-1.1-10-4.3-15-6.5
		c-7.4-3.3-14.8-6.9-22.3-9.9c-13.3-5.3-27-10-40.2-15.6c-8.9-3.8-17.9-8.2-25.7-13.8c-6-4.3-11.1-10.4-15.4-16.5
		c-6.5-9.2-15.1-16.1-23.9-22.7c-11.1-8.4-21.2-17.7-29.4-28.9c-6-8.3-12.2-16.4-18.6-24.4c-4.2-5.2-8.9-10.1-13.2-15.2
		c-1.6-1.9-2.9-2.1-4.8,0.7c-1.7-2.6-2.9-4.8-4.5-6.8c-5.7-7.1-11.4-14.1-17.2-21.1c-5.2-6.2-10.6-12.1-15.7-18.4
		c-7.3-8.9-11.3-19.3-12.7-30.7c-1-8.1-4.8-15-8.8-21.9c-0.9-1.5-1.3-3.3-2-5c-1.2-2.8-1.7-6.2-3.7-8.4c-4.1-4.5-5.1-9.7-4.8-15.3
		c0.6-11.8,0.6-23.4-1.5-35.1c-1.5-8.1-2.2-16.3-3.3-24.5c-0.1-0.8-0.2-1.7-0.6-2.3c-0.5-0.9-1.4-2.3-2.1-2.3c-1,0-2.2,0.9-3,1.7
		c-1.5,1.4-2.5,3.3-4.1,4.5c-3,2.4-6.4,1.4-7.2-2.3c-0.6-2.9-0.2-6.1-0.1-9.2c0-3.3,0.1-6.6,0.3-9.9c0.1-2.2,0.4-4.3,0.7-6.4
		c0.2-0.9,1-1.6,1.1-2.5c1.3-9.3,8-16.4,10.4-25.3c1.4-5.4,3.2-10.8,4.7-16.2c0.3-1.1,0.2-2.9-0.5-3.5c-2.6-2.1-1.9-4.5-0.9-6.9
		c4.4-10.6,9.2-21.1,13.1-31.9c5.5-14.9,16-26.4,25.2-38.9c2.8-3.8,4.9-8,7.3-12.1c2.5-4.2,5-8.5,7.6-12.6c1.3-2.1,1.5-3.9-0.6-5.4
		c-2.1-1.5-4-1.2-5.8,0.7c-6,6.7-12,13.3-18,19.9c-5.7,6.3-11.6,12.4-17.2,18.8c-4.5,5.1-8.7,10.5-13,15.8
		C362.5,243.1,362.3,243,362.1,243z M591.9,203.1c-1.1-0.1-2-0.4-2.6-0.2c-6.6,2.6-13.6,4.6-19.8,8c-5.8,3.1-10.7,7.9-16.2,11.6
		c-13.5,9-27.5,17.3-38.8,29.2c-5,5.2-10.5,9.8-13.8,16.7c-2.4,5-6.1,9.4-9.2,14.1c-4.6,7.2-9.4,14.3-13.6,21.8
		c-2.7,4.8-4.3,10.1-6.5,15.2c-0.8,1.9-1.9,3.6-2.8,5.5c-1.3,2.9-2.6,5.9-3.9,8.8c-1.2,2.7-3.2,5.4-3.3,8.2
		c-0.3,7.6-2.2,14.6-4.8,21.7c-1.5,4-2.2,8.6-1.9,12.9c0.7,10.2,2.1,20.3,3.3,30.5c0.2,1.4,0.1,2.9,0.7,4.1c2.7,5.3,2,11,2.6,16.6
		c0.3,2.5,0.8,5,0.8,7.6c0.2,10.9,6.4,18.5,13.6,25.7c7.1,7.1,14.1,14.2,21,21.4c2.4,2.5,4.3,5.4,6.8,7.8c5,4.9,9.6,9.9,11.1,17.1
		c0.3,1.6,1.3,3.2,2.2,4.7c3.1,4.7,6.4,9.3,9.5,13.9c3.3,4.8,6.3,10,11.9,12.6c8.7,3.9,16.5,9,23.7,15.2c0.9,0.8,2.8,1.5,3.7,1.1
		c2.4-1.1,3.7,0.2,5.1,1.6c0.9,0.9,1.8,1.8,2.7,2.7c3.6,3.8,7.7,7.3,10.6,11.6c3,4.5,4.8,9.8,7.4,14.7c2.5,4.9,5.7,9.7,10.9,11.5
		c8.5,2.9,17.1,5.5,25.9,7c10.9,1.8,21,5.4,31.2,9.6c5.5,2.3,11.9,4.7,17.5,4.1c14.6-1.6,29.1-3.3,43.7-2.6
		c11.8,0.5,23.2-0.8,34.1-5.5c5.9-2.5,11.7-5.2,17.8-7.5c5.5-2.1,11.4-3.1,16.6-5.5c13.7-6.5,24.6-16.2,33.7-28.4
		c8.6-11.5,17.7-22.6,26.4-34c4.1-5.4,8.4-10.8,11.5-16.7c4.9-9.5,8.5-19.6,13.3-29.1c4.3-8.5,9.2-16.7,14.4-24.6
		c6.1-9.2,9-19.3,9.9-30.1c0.5-6.6-0.1-13.2-1.8-19.8c-2.5-9.5-3.7-19.4-5.8-29.1c-1-4.6-2.6-9-4-13.5c-2.1-6.6-4.1-13.1-6.4-19.6
		c-2.8-7.9-5.5-15.8-8.9-23.4c-3.4-7.7-7.4-15.1-11.3-22.5c-3.7-6.9-6.8-14.2-11.6-20.2c-7.7-9.6-16.5-18.3-24.9-27.3
		c-4.5-4.8-8.8-9.8-13.7-14.1c-5-4.4-10.4-8.4-15.9-12c-7.4-4.8-15.3-8.8-22.8-13.6c-6.6-4.2-12.5-9.5-19.3-13.3
		c-15-8.5-28-19.8-41.8-29.8c-6-4.4-12.4-7.9-19.5-10c-1.3-0.4-3.1-0.2-4.3,0.4c-6.4,3.5-12.7,7.3-19.1,10.7
		c-6.2,3.3-12.4,6.7-18.9,9.1c-11.3,4.1-23,7.3-34.4,11.2c-2.6,0.9-5.2,2.3-7.3,4.1c-4.7,4.1-9.7,6.5-16.2,5.9
		C590.9,205.2,591.3,204.4,591.9,203.1z"/>
	<path d="M361,245.3c-0.9,1.8-1.7,3.5-2.6,5.3c-4.9,9.9-10,19.8-14.5,29.9c-3.5,7.9-6.5,16.1-9.4,24.3c-2.2,6.3-3.9,12.7-5.8,19.1
		c-1.9,6.6-3.8,13.3-5.7,19.9c-3,10.3-6.1,20.7-9.1,31c-1.2,4.1-2.4,8.3-4.2,12.5c-0.1-1.5-0.4-2.9-0.3-4.4
		c0.3-12.4,3.6-24.1,7.9-35.6c3.4-9,6.2-18.3,9.4-27.4c1.6-4.7,3.6-9.2,5.2-13.8c3-8.9,5.2-18.1,9-26.7c4.8-10.8,10.7-21,16.3-31.4
		c0.7-1.3,2.2-2.1,3.4-3.2C360.6,245,360.8,245.1,361,245.3z"/>
</g>
</svg>
