<?xml version="1.0" encoding="utf-8"?>
<!-- Generator: Adobe Illustrator 21.0.2, SVG Export Plug-In . SVG Version: 6.00 Build 0)  -->
<svg version="1.1" id="Lager_1" xmlns="http://www.w3.org/2000/svg" xmlns:xlink="http://www.w3.org/1999/xlink" x="0px" y="0px"
	 viewBox="0 0 1366 768" style="enable-background:new 0 0 1366 768;" xml:space="preserve">
<style type="text/css">
	.st0{stroke:#000000;stroke-width:4;stroke-miterlimit:10;}
</style>
<g>
	<path class="st0" d="M729.1,414.6c-0.2,4.6,2.7,8.8,6.5,11c3.8,2.2,8.2,2.6,12.5,2.6c13.6,0,27.1-4.4,39-11.5
		c17.1-10.3,31-26,41.4-43.8c1.8-3,4-6.5,7.3-6.6c3.6-0.1,6.1,4,6.7,7.8c0.7,4.3,0.7,8.8,1.3,13.1c0.6,4.6,0.6,9.3,1.3,13.8
		c1.4,9.3,13.4-2.2,16.1-4.6c6.7-6.1,12.9-13,20.9-17.1c3.6-1.9,7.6-3.2,11.6-2.8c11.3,1.1,14,15.9,17.2,25.2
		c1.1,3.4,1.7,7,2.7,10.4c1.6,5.3,4.1,6.6,9.1,4.9c3.6-1.3,7.1-2.8,10.5-4.4c11.9-5.4,23.3-4.8,34.7,1.9
		c16.5,9.7,29.7-38.9,33.8-49.3c1.1-2.7,2.1-5.6,1.6-8.4c-0.6-2.9-2.6-5.1-4.4-7.4c-8.1-10.5-11.2-24.7-8.3-37.6
		c0.8-3.8,2.5-7.9,6-9.6c4.4-2.1,9.8,0.6,12.5,4.6c12.5,19.2,4,45.2,20.4,65.1c1.8,2.1,2.9,6.4,0.2,6.7c-0.7,0.1-1.4-0.3-2.1-0.6
		c-5.8-3.2-11.2-7.1-16.1-11.5c-0.8-0.7-1.6-1.4-2.6-1.5c-1.9-0.1-3,2.2-3.5,4.1c-4.6,16.5-8.5,33.5-16,49
		c-2.4,5-8.5,20.1-14.4,21.4c-6.3,1.4-14.3-9.1-20.6-10.6c-6.9-1.6-14.1-0.3-20.7,2.1c-8.9,3.2-19.4,6.4-28.3,1.3
		c-5.5-3.2-8.1-8.9-8.2-15.4c-0.1-5.8,1.1-13.5-3.6-17.7c-2.5-2.2-6.3-1.5-9.2-0.1c-14.7,7.3-34.5,44-52.5,22.5
		c-2.4-2.8-3.7-6.7-3.7-10.4c0-4.2,2.4-7.7,2.6-11.9c0.3-7.4-5.6-4.5-7.8-0.4c-5.1,9.3-13.4,16.1-21.5,22.6
		c-10.2,8.1-20.8,16.3-33,19.7c-11.3,3.1-23.3,2-34.8-0.5c-7.6-1.7-15.3-4.1-21-9.7c-6.9-6.9-10-17.7-17.9-23.3
		c-2.7-1.9-5.9-3.1-8.3-5.5c-2.3-2.4-3.5-6.8-1.2-9.3c2.7-2.9,7.3-1,10.9-2.3c3.9-1.4,5.7-6.1,6.9-10.3c2.1-7.8,3.7-15.9,7.1-23.2
		c3.4-7.3,9.2-13.9,16.7-15.6c6.8-1.6,13.9,1,20.1,4.5c16,9,29,24.5,34.1,43c2,7.1,2.5,15.7-2.2,21.1c-4.6,5.4-12.3,5.6-19.2,5.4
		C749.5,415.1,739.3,414.8,729.1,414.6z M763.6,390c-1-3.4-1.6-6.9-3-10.2c-2.8-6.7-7.7-11.5-13.6-15.1c-7.1-4.5-14.8-3.4-20,3.4
		c-5,6.5-8.1,14-8.3,22.6c-0.1,4.7,0.4,5.8,4.8,6.3c10.6,1.1,21.3,2,31.9,2.3C761.3,399.5,763,396.9,763.6,390z"/>
	<path class="st0" d="M446.4,449.7c0.7-24.2,5.8-47.4,14.2-70c3-8.1,6.6-15.9,11.8-23c4.3-5.9,9.9-7.7,16.8-6.1
		c14.4,3.2,26.9,10.1,37.3,20.6c2.9,3,4.5,6.5,4.3,10.7c-0.2,3.7-1.5,4.8-4.8,3.4c-3.1-1.3-6-3.3-9-5c-6.7-4-13.5-8-21.4-9.1
		c-6.8-0.9-13.4,0-16.9,7.1c-2.9,5.9-6,11.8-7.9,18c-4.3,14-8.2,28.3-9.8,42.9c-0.8,7.1-0.5,14.1,2,20.7c2.9,7.7,7.1,10,14.6,8.1
		c8.2-2.1,15.2-6.7,22-11.5c1.9-1.3,3.8-2.7,5.7-4c8.8-5.8,19.6-0.8,22.5,7.6c4,11.3,5.5,23,2.4,34.7c-3.3,12.7-9,24.6-15.6,35.9
		c-7.3,12.7-25,19.2-38.4,23.1c-16.3,4.7-33.8,5.5-50.4,2c-26.9-5.6-51.4-22.4-66.4-45.4c-3-4.6-5.6-9.5-6.4-14.8
		c-0.8-5.4,0.4-11.3,4.3-15.1c2.6,7.4,4.5,16.4,9.3,22.6c4.4,5.7,11.4,10.7,17.3,14.6c12.6,8.4,27.2,13.3,42.3,14.5
		c19.8,1.6,47.3,4.9,64.7-7c9.4-6.4,16.2-16.2,19.7-27c1.6-4.9,6.8-29.2-1.8-30.2c-2.3-0.3-4.5,1-6.5,2.3
		c-6.9,4.4-13.8,9.2-21.7,11.6c-17.7,5.2-33.6-7.4-34.4-25.3C446.3,454.4,446.4,452.1,446.4,449.7z"/>
	<path class="st0" d="M666.6,396.5c-2.4-20.8-4-41.7-2.6-62.7c0.7-10.3,2.2-20.6,5.2-30.5c1.7-5.7,3.2-11.9,6.5-16.8
		c3.4-5,12-8.2,14.4-0.1c0.8,2.9,0.3,6-0.4,9c-4.9,22.9-11,44.3-11.9,68c-0.8,19.8-1.9,43,13.8,56.7c1.9,1.7,3.7,4.1,3.4,6.7
		c-0.2,1.5-1.1,2.8-1.8,4.1c-2.1,4.3-1.5,8.7-0.5,13.2c0.7,3,0.4,6.7-3.5,5.1c-1.3-0.6-2.4-1.7-3.7-2.5c-3.9-2.5-8.7-1.7-13.2-0.9
		c-8,2.1-16.6,3-24.8,4.5c-8.1,1.5-16.2,3-24.4,3.8c-18,1.8-35.2-2.5-49.7-15.1c-7.6-6.6-11.9-16.9-7.6-28.4
		c4.1-11.2,11.6-18.5,21.6-23.3c12.6-6,25.8-6.9,39.4-5.9c11.7,0.9,22.3,5.1,32.5,11.2C661.4,393.8,663.7,394.9,666.6,396.5z
		 M636.2,439.4c8.1-0.5,16.2-1,24.2-1.6c5.5-0.4,10.9-1.4,15.8-4.4c1.5-0.9,1.9-1.9,1.1-3.5c-4.3-8.8-9.4-16.9-17.8-21.8
		c-6.1-3.6-12.4-6.7-19.3-8.2c-5-1.1-10-2.4-15-2.8c-12.6-1.2-24.4,1.5-34.5,10.2c-5.6,4.9-6.3,12.1-2.1,18.4
		c3.8,5.7,9.5,7.9,15.4,9.7C614.6,438.6,625.4,439.1,636.2,439.4z"/>
	<path class="st0" d="M1229.2,448.6c-2.7,0.5-16-4-17.5-5c-6.4-4.2-12.2-9.5-18-14.5c-10.6-9-22.6-17.5-36.5-11.5
		c-12.5,5.4-25,10.8-37.6,16.1c-10.6,4.5-21.4,8.3-32.8,9.8c-7.6,1-15-0.4-21.3-5.1c-2.5-1.9-4.7-5-5.9-8.1
		c-3.4-8.8-8.8-7.9-13.6-1.5c-6.5,8.7-13.6,20.5-24.3,23.5c-5,1.4-12.3-0.1-14.4-5.8c-0.9-2.5-0.8-5.3-0.5-8
		c1-10.9,1.6-26.6,6.9-36.3c1.9-3.5,5.3-6.3,9.1-6.2c8.5,0.3,6.4,10.5,6,16.3c-0.2,2.8-1.5,13.9,3.4,7.7c4.5-5.7,8.7-11.8,13.4-17.4
		c3.7-4.5,8.8-6.4,14.2-4.2c2.9,1.2,5.7,3.5,7.7,6.1c5.5,7.2,6.8,16.2,16,19.5c16.9,6.1,37-7.3,51.9-14.3c17.3-8,35.4-7.2,52.3,1.4
		c9,4.6,18.3,9.2,26.3,15.7c6.9,5.5,12.8,12.6,15.8,21.2C1229.7,448.4,1229.6,448.5,1229.2,448.6z"/>
	<path class="st0" d="M389.1,427.9c0,0,0.1,0.1,0.1,0.1c-0.2-2.3,3-3.7,5-2.4c1.9,1.3,2.2,4.1,1.4,6.2c-4.5,11.1-15.9,16-26.8,18.5
		c-13.7,3.1-28,5.3-41.9,8.2c-15.8,3.3-46.1,5-47.1-17.7c-0.7-15.6,11.7-31.6,21-43c7.5-9.2,15.5-15.7,25.9-21.1
		c8.1-4.2,7.6,2,10.6-7.8c2.3-7.5-0.5-15.5-1.9-22.8c-0.4-1.9-0.8-3.9-1.1-5.8c-0.7-3.6-1.4-7.1-1.9-10.7c-0.4-2.7-0.6-5.5-1.2-8.2
		c-0.5-2.2-1.5-4.8-0.6-7c1.4-3.3,6.4-6.2,9.9-5c4.5,1.6,5.6,9.9,8,26.4c2,13.7,1,15.5,2,24.2C353.6,387.3,370.8,408.4,389.1,427.9z
		 M313.8,447.3c15,0.6,46.3-5.9,43.3-13.5c-3.6-9.2-12.1-49.1-27.3-39.5c-1.8,1.1-3.5,2.5-5,3.9c-7.5,6.9-30.4,38.6-17.9,47.6
		C308.1,446.7,310.6,447.2,313.8,447.3z M360.8,408.3c-0.2,0.1-0.5,0.2-0.7,0.3c0.1,1,0.1,2,0.4,2.9c2.2,7.5,4.6,14.9,6.7,22.3
		c0.9,3.2,2.4,3.5,5.3,2.6c6.9-2.2,7.8-3.6,3.5-9.6C371.1,420.5,365.8,414.5,360.8,408.3z"/>
	<path class="st0" d="M439.9,381.4c0-9,0.3-18.7-3-28.1c-4.1-11.5-9.5-22.2-18.6-30.7c-6.9-6.4-9.7-14.4-10-23.9
		c-0.2-7.3-2.5-14.5-3.7-21.8c-0.7-4.2-1.4-8.4-1.4-12.6c0-3.8,1.8-7.2,5.6-8.7c3.8-1.5,7.2,0,9.6,2.8c2.1,2.5,4.2,5.4,5.1,8.5
		c2.9,9.4,5.4,18.9,7.8,28.4c1.9,7.7,0.2,15.4-1.5,22.9c-1.3,5.6-0.9,10.4,2.8,15.2c7.8,10.3,11.7,22.2,13.3,34.8
		c1.6,12.3,2.3,24.7,0.2,37c-1.9,11.8-6.9,22.3-14.2,31.6c-5.9,7.5-20.9,11.7-29-1.2c-7.1-11.4-9.7-23.6-6.5-36.7
		c0.6-2.6,2-5.1,3.5-7.3c2.3-3.5,6.7-5,10-3.8c3.1,1.1,5.7,5.9,5.3,9.8c-0.2,2-0.7,4-1.3,5.9c-2.2,6.9-0.9,13.5,2.5,19.6
		c2.5,4.4,6.8,5.3,10.4,1.7c2.5-2.4,4.6-5.5,6-8.7C437.5,405.4,439.5,393.9,439.9,381.4z"/>
</g>
<path class="st0" d="M217.4,282.2c2.4,0.6,2.9,10.7,3.4,22.9c1.1,25.6,2.4,51.1,3,76.8c0.8,28.6,2.3,56.1-3.4,84.5
	c-4.1,20.1-12.7,9.1-15.1-4.6c-2.3-13.2-2.6-27.2-2.8-41.1C202.4,404.6,200.3,277.9,217.4,282.2z"/>
</svg>
