<?xml version="1.0" encoding="utf-8"?>
<!-- Generator: Adobe Illustrator 19.0.0, SVG Export Plug-In . SVG Version: 6.00 Build 0)  -->
<svg preserveAspectRatio="none" version="1.1" id="Layer_1" xmlns="http://www.w3.org/2000/svg" xmlns:xlink="http://www.w3.org/1999/xlink" x="0px" y="0px">
<style type="text/css">
	.st0{opacity:0.85;}
	.st1{fill:#5E6674;}
</style>
<g id="XMLID_1485_" class="st0">
	<path id="XMLID_89_" class="st1" d="M26.1,2.9C26,2.9,26,2.9,26.1,2.9L26.1,2.9z"/>
	<path id="XMLID_88_" class="st1" d="M53.2,2.6C53.2,2.6,53.2,2.6,53.2,2.6c0,0,0.1-0.1,0.1-0.1L53.2,2.6z"/>
	<path id="XMLID_87_" class="st1" d="M57.6,2.9C57.6,2.9,57.6,2.9,57.6,2.9C57.6,2.8,57.6,2.8,57.6,2.9z"/>
	<path id="XMLID_86_" class="st1" d="M43.1,3C43.1,3,43.1,3,43.1,3C43.1,3,43.1,3,43.1,3z"/>
	<path id="XMLID_85_" class="st1" d="M18.1,3.1C18.1,3.1,18.1,3.1,18.1,3.1C18.1,3.1,18,3.1,18.1,3.1L18.1,3.1z"/>
	<path id="XMLID_84_" class="st1" d="M18.1,3C18.2,3.1,18.1,3.1,18.1,3c0,0.1,0.1,0.1,0.3,0.1C18.4,3.1,18.2,3.1,18.1,3z"/>
	<path id="XMLID_83_" class="st1" d="M3.5,3.3L3.5,3.3C3.6,3.3,3.6,3.3,3.5,3.3z"/>
	<path id="XMLID_82_" class="st1" d="M43.6,6C43.5,6,43.5,6,43.6,6C43.5,6,43.6,6,43.6,6z"/>
	<path id="XMLID_81_" class="st1" d="M5.8,3.3L5.8,3.3C5.8,3.3,5.8,3.3,5.8,3.3z"/>
	<path id="XMLID_80_" class="st1" d="M53.3,2.5L53.3,2.5C53.3,2.5,53.3,2.5,53.3,2.5z"/>
	<path id="XMLID_79_" class="st1" d="M61.6,2.9C61.6,2.9,61.6,3,61.6,2.9C61.6,3,61.6,3,61.6,2.9L61.6,2.9z"/>
	<path id="XMLID_78_" class="st1" d="M81.9,4.5C81.9,4.5,81.9,4.4,81.9,4.5L81.9,4.5C81.9,4.5,81.9,4.5,81.9,4.5z"/>
	<path id="XMLID_77_" class="st1" d="M67.1,3.3C67.1,3.3,67.2,3.3,67.1,3.3c-0.1-0.1-0.3-0.1-0.6-0.1l0,0.1L67.1,3.3z"/>
	<path id="XMLID_76_" class="st1" d="M73.2,6.1l-0.6-0.2C74.5,5.8,75.4,6,77,5.8l0.1,0.1c0.2,0.1,0.2-0.5,3.2,0.2v0
		c0,0-0.1-0.1,0.1,0L79.8,6c0.3-0.1,0.5-0.2,0.8-0.2c0.1,0,0.1,0.1,0.1,0.1l0.9,0L81.8,6c0.3-0.1,0.1-0.4,0.9-0.2
		c-0.3-0.2,0.4-0.1,0.3-0.3c0,0,0.1,0.1,0.2,0.1c0.4,0,1.2-0.1,1.4-0.2c0,0-1.7-0.5-2.1-0.7c0.6,0.1,0.2,0,0-0.1l0,0.1
		c-0.4-0.1-0.4-0.2-0.5-0.2c0,0,0,0,0,0l0,0c0,0,0,0,0,0.1c0,0,0,0.1-0.1,0l0,0c-0.2,0-0.4,0-0.5,0l0-0.1C81,4.6,79.5,4,79.1,4
		c-0.4-0.2-0.8,0-1.3,0c-0.7,0-0.4-0.2-0.7-0.3c-0.5-0.1,0.1,0.1-0.1,0.1l-0.5-0.2c0.3,0,0.1-0.1,0.1-0.1c-0.5,0-1.2-0.2-1.3,0
		c-0.6-0.1-0.6-0.2-0.9-0.2c0.1,0,0.3,0.1,0.3,0.1c-0.3-0.1-0.2,0-0.1,0c-0.4,0.1-2.2-0.4-2.2-0.2v0c0,0.2,0.2,0.4-0.1,0.5l-0.1-0.1
		l-0.2,0.1c-0.2-0.1-0.1-0.1-0.1-0.1c-0.4,0.1-1,0-1.6,0l0.6,0.5c-0.5-0.1-1.3-0.4-1.4-0.2l-0.3-0.2c-0.9-0.3-0.6,0.1-1,0l-0.5-0.2
		l0.5,0c-0.5-0.1-0.6-0.2-1-0.3c0,0,0,0,0,0c0,0,0,0,0,0l-0.1,0c-0.1,0.1-0.3,0.2-0.6,0.2c-0.5,0-0.8,0.1-1.5-0.1l-0.2,0.2l-0.5-0.1
		V3.3c0,0,1.5-0.1,2.2-0.1l0-0.1c-0.4,0-0.9,0.1-1.1,0.1c-0.1,0-0.5-0.2-0.2-0.3l-0.3,0.2c-1.3,0-1.4,0-2.8-0.2L62.3,3
		c-0.3,0-0.6,0.1-0.6,0c-0.8,0-1.7-0.1-2.3-0.3l-0.1,0.2c-0.2,0-0.4-0.3-0.5,0l-0.5,0.1c-0.2,0,0.2,0.2-0.8,0c0,0,0,0.1,0,0.1h0.3
		c0,0,0-0.1-0.1-0.1c0,0,0,0,0,0c-0.6-0.1,0,0.2-0.6,0c-0.2-0.1-0.2,0.2-0.5,0.2l-0.3-0.3C55.6,2.7,55.5,3,54.7,3
		c-0.4-0.1-0.6-0.3-0.3-0.5c-0.4,0.2-0.2,0.2-0.6,0.3c-0.1-0.1,0-0.1,0.1-0.2c-0.4-0.1-0.3,0.1-0.6,0.1c-0.1,0.2-0.2,0.5-0.3,0.5
		l0.1,0.1c-0.3,0.1-0.7,0.2-1.1,0.1l0-0.1l-0.4,0l0-0.1l-0.6,0l0.1,0c-0.1,0-0.6,0.1-0.9,0l0-0.1c-0.7-0.2-1.3,0.1-2.2,0.1L48.1,3
		c-0.3-0.1-0.1,0.2-0.4,0.1l0-0.2c-0.3,0.2-0.4,0-0.6-0.1l0.1,0.2l-0.4,0c-0.4-0.1-0.3-0.3-0.2-0.4l-0.3,0.2l-0.1-0.2
		c-0.2,0.2-0.2,0-0.6,0.1c0-0.1,0.1-0.1-0.1-0.2l-0.6,0.3l0.4-0.1l0,0.3c-0.4,0.2-0.5,0-0.8,0l0.2-0.1c-0.5,0.1-0.5-0.1-0.7-0.1
		C44,2.9,44.1,3,43.9,3c-0.1,0-0.1-0.1-0.2-0.1c0,0.2-0.4,0.3-0.7,0.2c0,0,0-0.1,0-0.1C43,3,43,3.1,42.8,3l0.1-0.2L42.6,3
		c-0.2-0.1-0.4,0.1-0.4,0l0.1,0L41,2.9l0-0.2c-0.1,0.2-0.7-0.1-0.7,0.2c-0.2-0.2-1,0.1-0.8-0.2c-0.8,0-1.3,0.3-2.3,0.1
		c-0.4-0.3-1.4-0.2-2-0.2c-1.3,0.1-2.1,0.2-3.5,0.3c-0.8-0.4-2,0.1-2.8-0.1L28.6,3c-0.6-0.2-1.4,0.1-2.2-0.2
		c-0.2,0.1-0.3,0.1-0.3,0.1c0,0,0.1,0,0.1,0.1c-0.2-0.1-0.7,0-0.7-0.2l0.1,0c0-0.2-0.7,0.1-0.9-0.1L24.8,3l-0.4,0l0.1,0
		c-1.9,0.5-2.7-0.2-4.5,0.2c0.2-0.2-0.3,0.1-0.4-0.1c-0.4-0.3-0.8,0.1-1.2,0.2c0,0,0,0,0,0l-0.6,0c0.4-0.3-0.5,0.3-0.1,0
		c-1.7-0.2-3.8,0-5.8-0.1L12,3.1c-0.5,0-1.1,0.1-1.5,0c-0.4-0.1-0.8,0.2-1,0.2C9.1,3.4,8.8,3.2,8.9,3.2c-0.4,0-0.8,0.3-1.4,0.2
		c-0.2-0.3-1.6,0.3-1.7,0l0,0c-0.8-0.2-1.5,0.2-2.3,0c0,0,0,0,0,0L1.9,4.2l0.5,1l1.5,0.8l4-0.2l3.2,0.3l7.7-0.1l0.6-0.2
		c1.5,0.4,3.5-0.1,5.1,0.2l0-0.2c0.5,0,0.4,0.1,0.5,0.1c4.3,0,8.7-0.3,12.5-0.1c0.4,0.1,1.5,0.1,1.8,0.2C40.4,5.9,41.8,5.9,43,6l0,0
		l0.6,0c0,0,0,0,0,0.1c0.7-0.2,1.7,0,2.5,0.1l0,0c4.8,0,9.2-0.3,13.9-0.1c2.2,0.3,4.7-0.1,7.3,0.1C67.6,6.4,72.7,6.2,73.2,6.1z"/>
	<path id="XMLID_72_" class="st1" d="M80.7,6L80.7,6C80.7,6,80.7,6,80.7,6z"/>
	<path id="XMLID_71_" class="st1" d="M70.2,3.6C70.2,3.6,70.2,3.6,70.2,3.6l-0.1-0.1L70.2,3.6z"/>
	<path id="XMLID_70_" class="st1" d="M76.9,3.5c-0.3,0-0.3,0-0.3,0C76.7,3.5,76.8,3.5,76.9,3.5z"/>
	<path id="XMLID_69_" class="st1" d="M83.1,5.7C83.3,5.7,83.2,5.7,83.1,5.7c-0.2-0.1-0.3-0.1-0.3-0.1C83,5.7,83,5.7,83.1,5.7z"/>
	<path id="XMLID_68_" class="st1" d="M82.5,4.6L82.5,4.6C82.4,4.5,82.5,4.6,82.5,4.6z"/>
</g>
</svg>
